# xmcd
#
# Track frame offsets:
#	150
#	11967
#	23530
#	33890
#	46900
#	57730
#	73140
#	87400
#	98410
#	112070
#	122652
#	133185
#
# Disc length: 1954 seconds
#
# Revision: 0
# Processed by: cddbd v1.5PL3 Copyright (c) Steve Scherf et al.
# Submitted via: dBpowerAMP V4.0
#
DISCID=a307a00c
DTITLE=Chitãozinho and Xororó - 60 Dias Apaixonado
DYEAR=1979
DGENRE=Sertanejo
TTITLE0=Tudo Está Desarrumado
TTITLE1=Cama de Casal
TTITLE2=60 Dias Apaixonado
TTITLE3=Nosso Filho Com Quem Vai Ficar
TTITLE4=Tarde Demais
TTITLE5=Motivo de Saudade
TTITLE6=Ninguém Quis Dormir
TTITLE7=Noites do Passado
TTITLE8=O Direito de Amar
TTITLE9=Pensando em Voltar
TTITLE10=Amor Perigoso
TTITLE11=Chorando Espero
EXTD=
EXTT0=
EXTT1=
EXTT2=
EXTT3=
EXTT4=
EXTT5=
EXTT6=
EXTT7=
EXTT8=
EXTT9=
EXTT10=
EXTT11=
PLAYORDER=
